C:\Users\r0593348\3dpredictsim\Results\Batchsim_tmt_linear\Pog_s1_tmt_aCst_d00_k2000_ig24_pas_GRF.mot
nRows=20
nColumns=19

name C:\Users\r0593348\3dpredictsim\Results\Batchsim_tmt_linear\Pog_s1_tmt_aCst_d00_k2000_ig24_pas_GRF.mot
datacolumns 19
datarows 20
range 0.5521750895 0.7620016235
endheader
time 	ground_force_vx	ground_force_vy	ground_force_vz	ground_force_px	ground_force_py	ground_force_pz	1_ground_force_vx	1_ground_force_vy	1_ground_force_vz	1_ground_force_px	1_ground_force_py	1_ground_force_pz	ground_torque_x	ground_torque_y	ground_torque_z	1_ground_torque_x	1_ground_torque_y	1_ground_torque_z
        0.5521750895	       95.5451221884	      512.5782056936	        3.8076347834	        0.3770955659	        0.0000000000	        0.0374113782	      -93.2293623303	       84.6385217390	      -36.6369650232	        0.8650404666	        0.0000000000	       -0.0384616485	        0.0000000000	        0.0000000000	        0.0000000000	        0.0000000000	        0.0000000000	        0.0000000000	
        0.5632185913	       79.1605769450	      433.4281705579	        8.2252683480	        0.3804265300	        0.0000000000	        0.0365512988	      -83.5403158043	      180.1046091829	      -74.3299118253	        0.8713387959	        0.0000000000	       -0.0368684491	        0.0000000000	        0.0000000000	        0.0000000000	        0.0000000000	        0.0000000000	        0.0000000000	
        0.5742620931	       63.2600553264	      349.7389436494	        6.8299468161	        0.3853551700	        0.0000000000	        0.0348716823	      -36.9862026221	      322.7265583235	      -15.8015508585	        0.8748928700	        0.0000000000	       -0.0349013700	        0.0000000000	        0.0000000000	        0.0000000000	        0.0000000000	        0.0000000000	        0.0000000000	
        0.5853055949	       42.2341300003	      261.0880552017	        4.4013633052	        0.3931916543	        0.0000000000	        0.0317496621	      -38.7186638213	      455.2334905412	        0.3049745257	        0.8781789019	        0.0000000000	       -0.0352140730	        0.0000000000	        0.0000000000	        0.0000000000	        0.0000000000	        0.0000000000	        0.0000000000	
        0.5963490967	       17.9516583138	      171.1487448798	        8.5041017595	        0.4073025081	        0.0000000000	        0.0254746844	      -71.8700661038	      610.5521236064	        5.5929907677	        0.8857574640	        0.0000000000	       -0.0375788263	        0.0000000000	        0.0000000000	        0.0000000000	        0.0000000000	        0.0000000000	        0.0000000000	
        0.6073925984	        3.4097637224	      131.8023221238	       12.7471594123	        0.4141210824	        0.0000000000	        0.0220236670	      -96.3064109898	      734.3003169760	        9.7079329880	        0.8920974791	        0.0000000000	       -0.0394853576	        0.0000000000	        0.0000000000	        0.0000000000	        0.0000000000	        0.0000000000	        0.0000000000	
        0.6184361002	        1.1524459623	      101.1606947522	       13.3985642824	        0.4146465344	        0.0000000000	        0.0221134313	     -104.3258560155	      793.7453990235	       11.7253914853	        0.8965567628	        0.0000000000	       -0.0407018327	        0.0000000000	        0.0000000000	        0.0000000000	        0.0000000000	        0.0000000000	        0.0000000000	
        0.6294796020	       -2.9986784173	       65.1925590601	       11.9855872536	        0.4151041187	        0.0000000000	        0.0221351291	     -101.7107632163	      804.5567835470	       12.3453851036	        0.8998818887	        0.0000000000	       -0.0414714169	        0.0000000000	        0.0000000000	        0.0000000000	        0.0000000000	        0.0000000000	        0.0000000000	
        0.6405231038	       -8.4211727560	       26.4593505215	        5.7815230436	        0.4147504722	        0.0000000000	        0.0217741645	      -94.8639332576	      794.1762025199	       12.5431364260	        0.9028016203	        0.0000000000	       -0.0419395278	        0.0000000000	        0.0000000000	        0.0000000000	        0.0000000000	        0.0000000000	        0.0000000000	
        0.6515666056	        0.0948811802	       -0.0930602896	       -0.0023918568	        0.0000000000	        0.0000000000	        0.0000000000	      -85.7548272663	      780.0243325591	       13.3537199827	        0.9059419455	        0.0000000000	       -0.0421826936	        0.0000000000	        0.0000000000	        0.0000000000	        0.0000000000	        0.0000000000	        0.0000000000	
        0.6626101074	        0.0002156082	       -0.0001731386	        0.0000111228	        0.0000000000	        0.0000000000	        0.0000000000	      -74.4519903371	      757.7210101004	       14.3012724550	        0.9092212661	        0.0000000000	       -0.0423114877	        0.0000000000	        0.0000000000	        0.0000000000	        0.0000000000	        0.0000000000	        0.0000000000	
        0.6736536092	        0.0000902960	       -0.0000628556	        0.0000063547	        0.0000000000	        0.0000000000	        0.0000000000	      -64.5731685038	      732.3246616814	       14.7934996878	        0.9131699029	        0.0000000000	       -0.0423503233	        0.0000000000	        0.0000000000	        0.0000000000	        0.0000000000	        0.0000000000	        0.0000000000	
        0.6846971110	        0.0009179073	       -0.0005724362	        0.0000725111	        0.0000000000	        0.0000000000	        0.0000000000	      -56.0590141173	      707.5130505252	       15.2853814047	        0.9177134361	        0.0000000000	       -0.0422828492	        0.0000000000	        0.0000000000	        0.0000000000	        0.0000000000	        0.0000000000	        0.0000000000	
        0.6957406128	        0.0029025966	       -0.0016581258	        0.0002439996	        0.0000000000	        0.0000000000	        0.0000000000	      -47.4078959276	      681.4220649653	       15.8648074364	        0.9222918933	        0.0000000000	       -0.0422334506	        0.0000000000	        0.0000000000	        0.0000000000	        0.0000000000	        0.0000000000	        0.0000000000	
        0.7067841146	       -0.0321334512	        0.0170695797	       -0.0028154240	        0.0000000000	        0.0000000000	        0.0000000000	      -39.3330610148	      656.0985289387	       16.3923494796	        0.9268222542	        0.0000000000	       -0.0422416889	        0.0000000000	        0.0000000000	        0.0000000000	        0.0000000000	        0.0000000000	        0.0000000000	
        0.7178276163	       -0.0218757081	        0.0109273105	       -0.0019757356	        0.0000000000	        0.0000000000	        0.0000000000	      -32.3905438324	      633.7042941698	       16.8196960873	        0.9312981924	        0.0000000000	       -0.0422943696	        0.0000000000	        0.0000000000	        0.0000000000	        0.0000000000	        0.0000000000	        0.0000000000	
        0.7288711181	       -0.0158313311	        0.0075040933	       -0.0014588953	        0.0000000000	        0.0000000000	        0.0000000000	      -26.3946389095	      615.0727268897	       17.3221133909	        0.9358023645	        0.0000000000	       -0.0423696850	        0.0000000000	        0.0000000000	        0.0000000000	        0.0000000000	        0.0000000000	        0.0000000000	
        0.7399146199	       -0.0149477849	        0.0067749812	       -0.0013921091	        0.0000000000	        0.0000000000	        0.0000000000	      -21.3406029830	      600.8733839439	       17.6183689993	        0.9406098151	        0.0000000000	       -0.0424452157	        0.0000000000	        0.0000000000	        0.0000000000	        0.0000000000	        0.0000000000	        0.0000000000	
        0.7509581217	       -0.0188535014	        0.0082191841	       -0.0017601500	        0.0000000000	        0.0000000000	        0.0000000000	      -17.7568874934	      591.2949591429	       17.6706394047	        0.9457667699	        0.0000000000	       -0.0424937913	        0.0000000000	        0.0000000000	        0.0000000000	        0.0000000000	        0.0000000000	        0.0000000000	
        0.7620016235	       -0.0303724426	        0.0127969847	       -0.0028192370	        0.0000000000	        0.0000000000	        0.0000000000	      -15.0150048537	      585.4195377476	       17.7063152314	        0.9511847954	        0.0000000000	       -0.0424979621	        0.0000000000	        0.0000000000	        0.0000000000	        0.0000000000	        0.0000000000	        0.0000000000	
